<?xml version="1.0" standalone="no"?>
<!DOCTYPE svg PUBLIC "-//W3C//DTD SVG 20010904//EN"
 "http://www.w3.org/TR/2001/REC-SVG-20010904/DTD/svg10.dtd">
<svg version="1.0" xmlns="http://www.w3.org/2000/svg"
 width="139.000000pt" height="139.000000pt" viewBox="0 0 139.000000 139.000000"
 preserveAspectRatio="xMidYMid meet">
<metadata>
Created by potrace 1.11, written by Peter Selinger 2001-2013
</metadata>
<g transform="translate(0.000000,139.000000) scale(0.100000,-0.100000)"
fill="#000000" stroke="none">
<path d="M234 957 c-47 -9 -81 -39 -90 -81 -4 -17 -8 -95 -8 -173 l-2 -143 28
0 27 0 3 88 3 87 70 0 c68 0 70 1 70 25 0 24 -2 25 -70 25 -69 0 -70 1 -73 29
-5 39 16 85 42 92 11 2 39 6 61 7 33 2 41 6 43 25 2 12 0 22 -5 23 -43 4 -65
3 -99 -4z"/>
<path d="M410 960 c-10 -6 -13 -51 -12 -186 0 -99 1 -187 1 -196 1 -12 9 -18
26 -18 l25 0 0 199 c0 204 -4 223 -40 201z"/>
<path d="M516 833 c-3 -4 -6 -44 -6 -90 0 -135 32 -185 119 -186 90 -1 125 56
119 197 -3 74 -4 80 -25 81 -22 2 -23 -1 -23 -92 0 -86 -2 -96 -25 -118 -31
-32 -59 -32 -90 -1 -21 21 -25 34 -24 88 1 117 0 124 -20 125 -10 1 -22 -1
-25 -4z"/>
<path d="M789 832 c0 -4 -2 -15 -4 -24 -2 -11 6 -19 24 -23 70 -17 96 -101 46
-150 -13 -14 -33 -25 -43 -25 -21 0 -37 -36 -21 -46 17 -10 64 6 90 30 l24 23
33 -28 c42 -37 95 -41 90 -7 -2 14 -13 24 -33 30 -87 23 -84 154 5 173 30 7
42 36 20 50 -16 10 -79 -14 -94 -37 -15 -21 -15 -21 -46 6 -17 14 -37 26 -43
27 -7 0 -20 2 -29 4 -10 2 -18 0 -19 -3z"/>
<path d="M1119 817 c-94 -63 -89 -193 10 -244 72 -37 155 -12 186 57 16 35 19
153 3 144 -4 -3 -10 1 -15 9 -36 58 -124 74 -184 34z m128 -47 c76 -70 5 -198
-87 -160 -36 15 -64 71 -55 108 16 67 96 96 142 52z"/>
</g>
</svg>
